<svg width="500" height="400" viewBox="0 0 500 400" fill="none" xmlns="http://www.w3.org/2000/svg">
  <defs>
    <linearGradient id="bg15" x1="0%" y1="0%" x2="100%" y2="100%">
      <stop offset="0%" style="stop-color:#fef3c7;stop-opacity:1" />
      <stop offset="100%" style="stop-color:#a16207;stop-opacity:1" />
    </linearGradient>
  </defs>
  
  <!-- Background -->
  <rect width="500" height="400" fill="url(#bg15)"/>
  
  <!-- Bowl -->
  <ellipse cx="250" cy="320" rx="180" ry="70" fill="#6b7280"/>
  <ellipse cx="250" cy="300" rx="170" ry="60" fill="#9ca3af"/>
  <ellipse cx="250" cy="260" rx="160" ry="50" fill="#d1d5db"/>
  
  <!-- Rice -->
  <ellipse cx="200" cy="250" rx="50" ry="30" fill="#f3f4f6"/>
  <circle cx="180" cy="240" r="3" fill="#e5e7eb"/>
  <circle cx="200" cy="245" r="3" fill="#e5e7eb"/>
  <circle cx="220" cy="250" r="3" fill="#e5e7eb"/>
  <circle cx="190" cy="255" r="2" fill="#e5e7eb"/>
  <circle cx="210" cy="258" r="2" fill="#e5e7eb"/>
  
  <!-- Beans -->
  <ellipse cx="300" cy="250" rx="40" ry="25" fill="#92400e"/>
  <ellipse cx="290" cy="245" rx="8" ry="5" fill="#7c2d12"/>
  <ellipse cx="310" cy="248" rx="6" ry="4" fill="#7c2d12"/>
  <ellipse cx="295" cy="255" rx="7" ry="4" fill="#78350f"/>
  <ellipse cx="305" cy="252" rx="5" ry="3" fill="#78350f"/>
  
  <!-- Bacon pieces -->
  <rect x="240" y="240" width="12" height="6" fill="#dc2626" rx="2"/>
  <rect x="255" y="245" width="10" height="5" fill="#b91c1c" rx="2"/>
  <rect x="265" y="255" width="8" height="4" fill="#dc2626" rx="1"/>
  
  <!-- Onions -->
  <ellipse cx="220" cy="265" rx="12" ry="6" fill="#fef3c7"/>
  <ellipse cx="280" cy="270" rx="10" ry="5" fill="#fde047"/>
  
  <!-- Title -->
  <rect x="50" y="50" width="400" height="80" fill="rgba(0,0,0,0.7)" rx="10"/>
  <text x="250" y="85" text-anchor="middle" fill="#a16207" font-family="Arial, sans-serif" font-size="28" font-weight="bold">Baião de Dois</text>
  <text x="250" y="110" text-anchor="middle" fill="white" font-family="Arial, sans-serif" font-size="14">Arroz com Feijão Nordestino</text>
</svg>