<svg width="500" height="400" viewBox="0 0 500 400" fill="none" xmlns="http://www.w3.org/2000/svg">
  <defs>
    <linearGradient id="bg8" x1="0%" y1="0%" x2="100%" y2="100%">
      <stop offset="0%" style="stop-color:#fef2f2;stop-opacity:1" />
      <stop offset="100%" style="stop-color:#f59e0b;stop-opacity:1" />
    </linearGradient>
  </defs>
  
  <!-- Background -->
  <rect width="500" height="400" fill="url(#bg8)"/>
  
  <!-- Plate -->
  <ellipse cx="250" cy="320" rx="200" ry="70" fill="#4b5563"/>
  <ellipse cx="250" cy="310" rx="190" ry="60" fill="#6b7280"/>
  
  <!-- French fries -->
  <rect x="150" y="240" width="8" height="40" fill="#fbbf24" rx="4"/>
  <rect x="165" y="235" width="8" height="45" fill="#f59e0b" rx="4"/>
  <rect x="180" y="238" width="8" height="42" fill="#fbbf24" rx="4"/>
  <rect x="195" y="232" width="8" height="48" fill="#f59e0b" rx="4"/>
  <rect x="210" y="240" width="8" height="40" fill="#fbbf24" rx="4"/>
  <rect x="225" y="236" width="8" height="44" fill="#f59e0b" rx="4"/>
  <rect x="240" y="238" width="8" height="42" fill="#fbbf24" rx="4"/>
  <rect x="255" y="233" width="8" height="47" fill="#f59e0b" rx="4"/>
  <rect x="270" y="240" width="8" height="40" fill="#fbbf24" rx="4"/>
  <rect x="285" y="235" width="8" height="45" fill="#f59e0b" rx="4"/>
  <rect x="300" y="238" width="8" height="42" fill="#fbbf24" rx="4"/>
  <rect x="315" y="234" width="8" height="46" fill="#f59e0b" rx="4"/>
  <rect x="330" y="240" width="8" height="40" fill="#fbbf24" rx="4"/>
  
  <!-- Melted cheese -->
  <ellipse cx="240" cy="220" rx="80" ry="25" fill="#fef08a"/>
  <ellipse cx="230" cy="215" rx="40" ry="15" fill="#fde047"/>
  <ellipse cx="260" cy="218" rx="35" ry="12" fill="#fef3c7"/>
  
  <!-- Cheese drips -->
  <ellipse cx="200" cy="250" rx="6" ry="15" fill="#fde047"/>
  <ellipse cx="280" cy="255" rx="5" ry="12" fill="#fef08a"/>
  <ellipse cx="320" cy="250" rx="4" ry="10" fill="#fde047"/>
  
  <!-- Title -->
  <rect x="50" y="50" width="400" height="80" fill="rgba(0,0,0,0.7)" rx="10"/>
  <text x="250" y="85" text-anchor="middle" fill="#fbbf24" font-family="Arial, sans-serif" font-size="26" font-weight="bold">Batata com Queijo</text>
  <text x="250" y="110" text-anchor="middle" fill="white" font-family="Arial, sans-serif" font-size="14">Entrada Deliciosa</text>
</svg>