<svg width="500" height="400" viewBox="0 0 500 400" fill="none" xmlns="http://www.w3.org/2000/svg">
  <defs>
    <linearGradient id="bg5" x1="0%" y1="0%" x2="100%" y2="100%">
      <stop offset="0%" style="stop-color:#dbeafe;stop-opacity:1" />
      <stop offset="100%" style="stop-color:#3b82f6;stop-opacity:1" />
    </linearGradient>
  </defs>
  
  <!-- Background -->
  <rect width="500" height="400" fill="url(#bg5)"/>
  
  <!-- Refrigerant bottle -->
  <rect x="150" y="150" width="60" height="180" fill="#dc2626" rx="30"/>
  <rect x="160" y="160" width="40" height="20" fill="#fef2f2" rx="5"/>
  <text x="180" y="175" text-anchor="middle" fill="#dc2626" font-family="Arial, sans-serif" font-size="10" font-weight="bold">COLA</text>
  
  <!-- Beer bottle -->
  <rect x="230" y="120" width="40" height="200" fill="#92400e" rx="20"/>
  <rect x="235" y="130" width="30" height="30" fill="#fbbf24" rx="5"/>
  <circle cx="250" cy="340" r="25" fill="#f59e0b"/>
  
  <!-- Glass -->
  <rect x="290" y="180" width="50" height="120" fill="rgba(255,255,255,0.8)" rx="5"/>
  <rect x="295" y="185" width="40" height="100" fill="#3b82f6" opacity="0.6"/>
  <ellipse cx="315" cy="190" rx="15" ry="8" fill="#dbeafe"/>
  
  <!-- Water bottle -->
  <rect x="360" y="160" width="35" height="140" fill="#dbeafe" rx="17"/>
  <rect x="365" y="170" width="25" height="15" fill="#1e40af" rx="3"/>
  <text x="377" y="180" text-anchor="middle" fill="white" font-family="Arial, sans-serif" font-size="8" font-weight="bold">H₂O</text>
  
  <!-- Ice cubes -->
  <rect x="200" y="250" width="15" height="15" fill="#f1f5f9" rx="3"/>
  <rect x="280" y="270" width="12" height="12" fill="#f1f5f9" rx="2"/>
  <rect x="320" y="260" width="14" height="14" fill="#f1f5f9" rx="3"/>
  
  <!-- Title -->
  <rect x="50" y="50" width="400" height="80" fill="rgba(0,0,0,0.7)" rx="10"/>
  <text x="250" y="85" text-anchor="middle" fill="#3b82f6" font-family="Arial, sans-serif" font-size="28" font-weight="bold">Bebidas</text>
  <text x="250" y="110" text-anchor="middle" fill="white" font-family="Arial, sans-serif" font-size="14">Refrescantes e Geladas</text>
</svg>