<svg width="500" height="400" viewBox="0 0 500 400" fill="none" xmlns="http://www.w3.org/2000/svg">
  <defs>
    <linearGradient id="bg7" x1="0%" y1="0%" x2="100%" y2="100%">
      <stop offset="0%" style="stop-color:#fef3c7;stop-opacity:1" />
      <stop offset="100%" style="stop-color:#f59e0b;stop-opacity:1" />
    </linearGradient>
  </defs>
  
  <!-- Background -->
  <rect width="500" height="400" fill="url(#bg7)"/>
  
  <!-- Plate -->
  <ellipse cx="250" cy="300" rx="180" ry="90" fill="#f3f4f6"/>
  <ellipse cx="250" cy="290" rx="170" ry="80" fill="#ffffff"/>
  
  <!-- Bolinhos -->
  <circle cx="200" cy="220" r="25" fill="#f59e0b"/>
  <circle cx="250" cy="210" r="28" fill="#fbbf24"/>
  <circle cx="300" cy="225" r="26" fill="#f59e0b"/>
  <circle cx="180" cy="260" r="24" fill="#fbbf24"/>
  <circle cx="320" cy="265" r="25" fill="#f59e0b"/>
  
  <!-- Texture on bolinhos -->
  <circle cx="200" cy="215" r="3" fill="#ea580c"/>
  <circle cx="250" cy="205" r="3" fill="#ea580c"/>
  <circle cx="300" cy="220" r="3" fill="#ea580c"/>
  
  <!-- Shrimp inside (showing through) -->
  <ellipse cx="250" cy="210" rx="8" ry="4" fill="#dc2626"/>
  <ellipse cx="200" cy="220" rx="6" ry="3" fill="#dc2626"/>
  
  <!-- Parsley garnish -->
  <ellipse cx="230" cy="270" rx="8" ry="4" fill="#15803d"/>
  <ellipse cx="270" cy="275" rx="6" ry="3" fill="#166534"/>
  
  <!-- Title -->
  <rect x="50" y="50" width="400" height="80" fill="rgba(0,0,0,0.7)" rx="10"/>
  <text x="250" y="85" text-anchor="middle" fill="#fbbf24" font-family="Arial, sans-serif" font-size="24" font-weight="bold">Bolinho de Camarão</text>
  <text x="250" y="110" text-anchor="middle" fill="white" font-family="Arial, sans-serif" font-size="14">Crocante e Saboroso</text>
</svg>