<svg width="500" height="400" viewBox="0 0 500 400" fill="none" xmlns="http://www.w3.org/2000/svg">
  <defs>
    <linearGradient id="bg11" x1="0%" y1="0%" x2="100%" y2="100%">
      <stop offset="0%" style="stop-color:#ecfeff;stop-opacity:1" />
      <stop offset="100%" style="stop-color:#0891b2;stop-opacity:1" />
    </linearGradient>
  </defs>
  
  <!-- Background -->
  <rect width="500" height="400" fill="url(#bg11)"/>
  
  <!-- Plate -->
  <ellipse cx="250" cy="320" rx="180" ry="60" fill="#f3f4f6"/>
  <ellipse cx="250" cy="310" rx="170" ry="50" fill="#ffffff"/>
  
  <!-- Shrimp -->
  <ellipse cx="180" cy="220" rx="25" ry="40" fill="#fbbf24"/>
  <ellipse cx="220" cy="210" rx="28" ry="45" fill="#f59e0b"/>
  <ellipse cx="250" cy="200" rx="30" ry="48" fill="#fbbf24"/>
  <ellipse cx="280" cy="210" rx="28" ry="45" fill="#f59e0b"/>
  <ellipse cx="320" cy="220" rx="25" ry="40" fill="#fbbf24"/>
  
  <!-- Shrimp tails -->
  <ellipse cx="175" cy="190" rx="8" ry="15" fill="#dc2626"/>
  <ellipse cx="215" cy="180" rx="10" ry="18" fill="#b91c1c"/>
  <ellipse cx="245" cy="170" rx="12" ry="20" fill="#dc2626"/>
  <ellipse cx="285" cy="180" rx="10" ry="18" fill="#b91c1c"/>
  <ellipse cx="325" cy="190" rx="8" ry="15" fill="#dc2626"/>
  
  <!-- Breading texture -->
  <circle cx="175" cy="215" r="2" fill="#ea580c"/>
  <circle cx="185" cy="225" r="2" fill="#ea580c"/>
  <circle cx="245" cy="195" r="3" fill="#ea580c"/>
  <circle cx="255" cy="205" r="2" fill="#ea580c"/>
  <circle cx="315" cy="215" r="2" fill="#ea580c"/>
  
  <!-- Rose sauce -->
  <ellipse cx="250" cy="280" rx="30" ry="10" fill="#fecaca"/>
  <ellipse cx="240" cy="275" rx="18" ry="6" fill="#f87171"/>
  
  <!-- Lemon garnish -->
  <ellipse cx="200" cy="300" rx="12" ry="6" fill="#fef08a"/>
  <ellipse cx="300" cy="295" rx="10" ry="5" fill="#fde047"/>
  
  <!-- Title -->
  <rect x="50" y="50" width="400" height="80" fill="rgba(0,0,0,0.7)" rx="10"/>
  <text x="250" y="85" text-anchor="middle" fill="#0891b2" font-family="Arial, sans-serif" font-size="24" font-weight="bold">Camarão Empanado</text>
  <text x="250" y="110" text-anchor="middle" fill="white" font-family="Arial, sans-serif" font-size="14">Premium com Molho Rose</text>
</svg>