<svg width="500" height="400" viewBox="0 0 500 400" fill="none" xmlns="http://www.w3.org/2000/svg">
  <defs>
    <linearGradient id="bg14" x1="0%" y1="0%" x2="100%" y2="100%">
      <stop offset="0%" style="stop-color:#f0f9ff;stop-opacity:1" />
      <stop offset="100%" style="stop-color:#0369a1;stop-opacity:1" />
    </linearGradient>
  </defs>
  
  <!-- Background -->
  <rect width="500" height="400" fill="url(#bg14)"/>
  
  <!-- Plate -->
  <ellipse cx="250" cy="330" rx="230" ry="60" fill="#4b5563"/>
  <ellipse cx="250" cy="320" rx="220" ry="50" fill="#6b7280"/>
  
  <!-- Filet -->
  <ellipse cx="180" cy="240" rx="45" ry="20" fill="#7c2d12"/>
  <ellipse cx="180" cy="235" rx="40" ry="15" fill="#991b1b"/>
  
  <!-- Rice (Baião) -->
  <ellipse cx="280" cy="250" rx="40" ry="20" fill="#a16207"/>
  <circle cx="270" cy="245" r="2" fill="#92400e"/>
  <circle cx="285" cy="248" r="2" fill="#92400e"/>
  <circle cx="290" cy="252" r="2" fill="#78350f"/>
  
  <!-- Farofa -->
  <ellipse cx="320" cy="280" rx="30" ry="15" fill="#a16207"/>
  
  <!-- Salad -->
  <ellipse cx="150" cy="280" rx="35" ry="20" fill="#15803d"/>
  <circle cx="140" cy="275" r="4" fill="#16a34a"/>
  <circle cx="155" cy="285" r="3" fill="#22c55e"/>
  <ellipse cx="160" cy="275" rx="6" ry="3" fill="#dc2626"/>
  
  <!-- Garlic bread -->
  <ellipse cx="380" cy="260" rx="25" ry="15" fill="#fbbf24"/>
  <ellipse cx="380" cy="255" rx="20" ry="10" fill="#f59e0b"/>
  
  <!-- Title -->
  <rect x="50" y="50" width="400" height="80" fill="rgba(0,0,0,0.8)" rx="10"/>
  <text x="250" y="85" text-anchor="middle" fill="#0ea5e9" font-family="Arial, sans-serif" font-size="24" font-weight="bold">Executivo de Filé</text>
  <text x="250" y="110" text-anchor="middle" fill="white" font-family="Arial, sans-serif" font-size="14">Prato Individual Completo</text>
</svg>