<svg width="500" height="400" viewBox="0 0 500 400" fill="none" xmlns="http://www.w3.org/2000/svg">
  <defs>
    <linearGradient id="bg9" x1="0%" y1="0%" x2="100%" y2="100%">
      <stop offset="0%" style="stop-color:#fff7ed;stop-opacity:1" />
      <stop offset="100%" style="stop-color:#ea580c;stop-opacity:1" />
    </linearGradient>
  </defs>
  
  <!-- Background -->
  <rect width="500" height="400" fill="url(#bg9)"/>
  
  <!-- Plate -->
  <ellipse cx="250" cy="320" rx="180" ry="60" fill="#f3f4f6"/>
  <ellipse cx="250" cy="310" rx="170" ry="50" fill="#ffffff"/>
  
  <!-- Chicken pieces -->
  <ellipse cx="200" cy="240" rx="30" ry="20" fill="#fbbf24"/>
  <ellipse cx="250" cy="220" rx="35" ry="25" fill="#f59e0b"/>
  <ellipse cx="300" cy="245" rx="32" ry="22" fill="#fbbf24"/>
  <ellipse cx="180" cy="280" rx="28" ry="18" fill="#f59e0b"/>
  <ellipse cx="320" cy="275" rx="30" ry="20" fill="#fbbf24"/>
  
  <!-- Breading texture -->
  <circle cx="195" cy="235" r="3" fill="#ea580c"/>
  <circle cx="205" cy="245" r="2" fill="#ea580c"/>
  <circle cx="245" cy="215" r="3" fill="#ea580c"/>
  <circle cx="255" cy="225" r="2" fill="#ea580c"/>
  <circle cx="295" cy="240" r="3" fill="#ea580c"/>
  <circle cx="305" cy="250" r="2" fill="#ea580c"/>
  
  <!-- Rose sauce -->
  <ellipse cx="250" cy="290" rx="25" ry="8" fill="#fecaca"/>
  <ellipse cx="240" cy="285" rx="15" ry="5" fill="#f87171"/>
  
  <!-- Garnish -->
  <ellipse cx="220" cy="300" rx="8" ry="4" fill="#15803d"/>
  <ellipse cx="280" cy="295" rx="6" ry="3" fill="#166534"/>
  
  <!-- Title -->
  <rect x="50" y="50" width="400" height="80" fill="rgba(0,0,0,0.7)" rx="10"/>
  <text x="250" y="85" text-anchor="middle" fill="#fbbf24" font-family="Arial, sans-serif" font-size="24" font-weight="bold">Isca de Frango Empanado</text>
  <text x="250" y="110" text-anchor="middle" fill="white" font-family="Arial, sans-serif" font-size="14">Crocante com Molho Rose</text>
</svg>