<svg width="500" height="400" viewBox="0 0 500 400" fill="none" xmlns="http://www.w3.org/2000/svg">
  <defs>
    <linearGradient id="bg1" x1="0%" y1="0%" x2="100%" y2="100%">
      <stop offset="0%" style="stop-color:#fef7cd;stop-opacity:1" />
      <stop offset="50%" style="stop-color:#fed7aa;stop-opacity:1" />
      <stop offset="100%" style="stop-color:#ea580c;stop-opacity:1" />
    </linearGradient>
    <linearGradient id="bread" x1="0%" y1="0%" x2="0%" y2="100%">
      <stop offset="0%" style="stop-color:#fbbf24;stop-opacity:1" />
      <stop offset="50%" style="stop-color:#f59e0b;stop-opacity:1" />
      <stop offset="100%" style="stop-color:#d97706;stop-opacity:1" />
    </linearGradient>
    <linearGradient id="meat" x1="0%" y1="0%" x2="100%" y2="0%">
      <stop offset="0%" style="stop-color:#7c2d12;stop-opacity:1" />
      <stop offset="30%" style="stop-color:#991b1b;stop-opacity:1" />
      <stop offset="70%" style="stop-color:#b91c1c;stop-opacity:1" />
      <stop offset="100%" style="stop-color:#dc2626;stop-opacity:1" />
    </linearGradient>
    <linearGradient id="cheese" x1="0%" y1="0%" x2="100%" y2="0%">
      <stop offset="0%" style="stop-color:#fef3c7;stop-opacity:1" />
      <stop offset="50%" style="stop-color:#fef08a;stop-opacity:1" />
      <stop offset="100%" style="stop-color:#fde047;stop-opacity:1" />
    </linearGradient>
  </defs>
  
  <!-- Background -->
  <rect width="500" height="400" fill="url(#bg1)"/>
  
  <!-- Wooden cutting board -->
  <ellipse cx="250" cy="300" rx="200" ry="80" fill="#92400e"/>
  <ellipse cx="250" cy="290" rx="190" ry="70" fill="#a16207"/>
  <ellipse cx="250" cy="285" rx="180" ry="65" fill="#b45309"/>
  
  <!-- Board wood grain -->
  <ellipse cx="250" cy="285" rx="160" ry="55" fill="none" stroke="#78350f" stroke-width="1" opacity="0.3"/>
  <ellipse cx="250" cy="285" rx="140" ry="45" fill="none" stroke="#78350f" stroke-width="1" opacity="0.2"/>
  
  <!-- Bottom bread -->
  <ellipse cx="250" cy="240" rx="120" ry="35" fill="url(#bread)"/>
  <ellipse cx="250" cy="235" rx="115" ry="30" fill="#f59e0b"/>
  
  <!-- Bread texture -->
  <ellipse cx="230" cy="230" rx="8" ry="4" fill="#d97706" opacity="0.6"/>
  <ellipse cx="270" cy="232" rx="6" ry="3" fill="#d97706" opacity="0.5"/>
  <ellipse cx="250" cy="228" rx="7" ry="3" fill="#d97706" opacity="0.4"/>
  
  <!-- Lettuce -->
  <ellipse cx="220" cy="215" rx="25" ry="12" fill="#16a34a"/>
  <ellipse cx="280" cy="218" rx="22" ry="10" fill="#15803d"/>
  <ellipse cx="250" cy="212" rx="20" ry="8" fill="#22c55e"/>
  
  <!-- Picanha slices -->
  <ellipse cx="240" cy="200" rx="35" ry="15" fill="url(#meat)"/>
  <ellipse cx="260" cy="195" rx="32" ry="12" fill="#991b1b"/>
  <ellipse cx="250" cy="205" rx="28" ry="10" fill="#b91c1c"/>
  
  <!-- Meat texture/grill marks -->
  <rect x="225" y="195" width="30" height="2" fill="#451a03" opacity="0.8"/>
  <rect x="245" y="200" width="25" height="1" fill="#451a03" opacity="0.6"/>
  <rect x="235" y="203" width="20" height="1" fill="#451a03" opacity="0.7"/>
  
  <!-- Melted cheese -->
  <ellipse cx="230" cy="185" rx="40" ry="15" fill="url(#cheese)"/>
  <ellipse cx="270" cy="188" rx="35" ry="12" fill="#fef08a"/>
  
  <!-- Cheese drips -->
  <ellipse cx="205" cy="200" rx="8" ry="18" fill="#fde047" opacity="0.8"/>
  <ellipse cx="295" cy="205" rx="6" ry="15" fill="#fef08a" opacity="0.7"/>
  
  <!-- Top bread -->
  <ellipse cx="250" cy="170" rx="110" ry="30" fill="url(#bread)"/>
  <ellipse cx="250" cy="165" rx="105" ry="25" fill="#f59e0b"/>
  
  <!-- Sesame seeds -->
  <ellipse cx="230" cy="160" rx="2" ry="1" fill="#fef3c7"/>
  <ellipse cx="245" cy="158" rx="2" ry="1" fill="#fef3c7"/>
  <ellipse cx="265" cy="162" rx="2" ry="1" fill="#fef3c7"/>
  <ellipse cx="280" cy="159" rx="2" ry="1" fill="#fef3c7"/>
  <ellipse cx="255" cy="156" rx="2" ry="1" fill="#fef3c7"/>
  
  <!-- Steam -->
  <path d="M 200 150 Q 205 130 210 150" stroke="#f3f4f6" stroke-width="2" fill="none" opacity="0.6"/>
  <path d="M 220 145 Q 225 125 230 145" stroke="#f3f4f6" stroke-width="2" fill="none" opacity="0.5"/>
  <path d="M 280 148 Q 285 128 290 148" stroke="#f3f4f6" stroke-width="2" fill="none" opacity="0.6"/>
  
  <!-- Herbs garnish -->
  <ellipse cx="180" cy="260" rx="12" ry="6" fill="#15803d"/>
  <ellipse cx="320" cy="265" rx="10" ry="5" fill="#166534"/>
  
  <!-- Title area -->
  <rect x="50" y="50" width="400" height="80" fill="rgba(0,0,0,0.7)" rx="15"/>
  <text x="250" y="85" text-anchor="middle" fill="#fbbf24" font-family="serif" font-size="32" font-weight="bold">Pão com Picanha</text>
  <text x="250" y="110" text-anchor="middle" fill="white" font-family="serif" font-size="16">Especialidade da Casa</text>
</svg>