<svg width="500" height="400" viewBox="0 0 500 400" fill="none" xmlns="http://www.w3.org/2000/svg">
  <defs>
    <linearGradient id="bg1" x1="0%" y1="0%" x2="100%" y2="100%">
      <stop offset="0%" style="stop-color:#fef3c7;stop-opacity:1" />
      <stop offset="100%" style="stop-color:#f59e0b;stop-opacity:1" />
    </linearGradient>
  </defs>
  
  <!-- Background -->
  <rect width="500" height="400" fill="url(#bg1)"/>
  
  <!-- Plate -->
  <ellipse cx="250" cy="320" rx="180" ry="60" fill="#e5e7eb" opacity="0.8"/>
  <ellipse cx="250" cy="310" rx="170" ry="50" fill="#f3f4f6"/>
  
  <!-- Bread -->
  <ellipse cx="250" cy="280" rx="120" ry="40" fill="#d97706"/>
  <ellipse cx="250" cy="270" rx="110" ry="35" fill="#f59e0b"/>
  <ellipse cx="250" cy="260" rx="100" ry="30" fill="#fbbf24"/>
  
  <!-- Meat -->
  <ellipse cx="250" cy="240" rx="80" ry="20" fill="#7c2d12"/>
  <ellipse cx="250" cy="235" rx="75" ry="18" fill="#991b1b"/>
  
  <!-- Cheese -->
  <ellipse cx="250" cy="225" rx="85" ry="15" fill="#fef08a"/>
  
  <!-- Top bread -->
  <ellipse cx="250" cy="210" rx="100" ry="30" fill="#fbbf24"/>
  <ellipse cx="250" cy="200" rx="95" ry="25" fill="#f59e0b"/>
  
  <!-- Garnish -->
  <circle cx="180" cy="290" r="8" fill="#16a34a"/>
  <circle cx="320" cy="295" r="6" fill="#dc2626"/>
  
  <!-- Title -->
  <rect x="50" y="50" width="400" height="80" fill="rgba(0,0,0,0.7)" rx="10"/>
  <text x="250" y="85" text-anchor="middle" fill="#fbbf24" font-family="Arial, sans-serif" font-size="28" font-weight="bold">Pão com Picanha</text>
  <text x="250" y="110" text-anchor="middle" fill="white" font-family="Arial, sans-serif" font-size="14">Especial da Casa</text>
</svg>